<svg xmlns="http://www.w3.org/2000/svg" width="30" height="30" fill="none"><g clip-path="url(#a)"><rect width="30" height="30" rx="15" fill="#28B894"/><path d="M20.747 2.516c.274-.245.29-.254.491-.267.326-.023.624.133 1.132.595 1.184 1.076 2.834 3.29 3.86 5.18l.397.734.56.28c.54.272 1.426.832 1.797 1.133.167.138.191.14.365.072.786-.305 1.912.1 2.905 1.053.894.856 1.75 2.32 2.078 3.542.047.196.11.619.134.934.075 1.105-.28 1.988-.962 2.388-.14.08-.15.102-.145.45.031 1.655-.415 3.307-1.311 4.919-1.012 1.809-2.814 3.68-5.252 5.444-1.31.953-4.407 2.758-5.808 3.392-3.355 1.51-6.045 2.09-8.381 1.803-1.394-.169-2.971-.713-3.905-1.344-.245-.17-.284-.18-.472-.127-.999.287-2.308-.303-3.42-1.537-.443-.493-1.158-1.704-1.39-2.352-.537-1.517-.43-2.886.285-3.703.184-.21.19-.22.149-.574a13.774 13.774 0 0 1-.066-1.99l.024-.518-.777-1.373c-1.202-2.138-1.965-3.934-2.26-5.306C.62 14.59.63 14.257.821 14.01c.116-.15.497-.305.957-.39 1.157-.203 3.68-.019 6.487.477l.292.05.64-.566c1.065-.942 1.772-1.47 3.075-2.283 1.358-.85 2.89-1.55 4.616-2.103l.553-.177.305-.8c1.09-2.876 2.206-4.997 3.001-5.703ZM11.621 17.26c-1.232.71-1.848 1.066-2.3 1.464a6.061 6.061 0 0 0-1.738 6.485c.193.571.549 1.187 1.26 2.419.711 1.231 1.066 1.848 1.464 2.3a6.06 6.06 0 0 0 6.485 1.737c.571-.193 1.187-.548 2.419-1.26l7.085-4.09c1.232-.711 1.848-1.067 2.3-1.466a6.06 6.06 0 0 0 1.738-6.483c-.193-.571-.549-1.188-1.26-2.42-.71-1.23-1.067-1.847-1.465-2.3a6.06 6.06 0 0 0-6.484-1.737c-.571.192-1.187.549-2.419 1.26l-7.085 4.09Z" fill="#191A23"/><rect x="12.302" y="22.21" width="2.799" height="5.813" rx="1.4" transform="rotate(-30 12.302 22.21)" fill="#191A23"/><rect x="19.855" y="17.851" width="2.799" height="5.813" rx="1.4" transform="rotate(-30 19.855 17.85)" fill="#191A23"/></g><defs><clipPath id="a"><rect width="30" height="30" rx="15" fill="#fff"/></clipPath></defs></svg>