<svg width="16" height="16" fill="none" xmlns="http://www.w3.org/2000/svg"><path d="M1.5 12.667V3.333A1.833 1.833 0 0 1 3.333 1.5h7.334l.098.01a.5.5 0 0 1 .255.136l3.334 3.333a.5.5 0 0 1 .146.354v7.334a1.833 1.833 0 0 1-1.833 1.833H3.333A1.833 1.833 0 0 1 1.5 12.667Zm1 0a.833.833 0 0 0 .833.833h9.334a.833.833 0 0 0 .833-.833V5.54L10.46 2.5H3.333a.833.833 0 0 0-.833.833v9.334Z" fill="currentColor"/><path d="M9.5 4.667V2a.5.5 0 0 1 1 0v2.667a.833.833 0 0 0 .833.833H14a.5.5 0 0 1 0 1h-2.667A1.833 1.833 0 0 1 9.5 4.667Z" fill="currentColor"/></svg>