<svg xmlns="http://www.w3.org/2000/svg" width="16" height="16" fill="none"><path d="M6.447 2.757a1.56 1.56 0 0 1 3.106 0 1.56 1.56 0 0 0 2.213 1.277 1.56 1.56 0 0 1 1.553 2.688 1.56 1.56 0 0 0 0 2.554 1.56 1.56 0 0 1-1.553 2.69 1.56 1.56 0 0 0-2.213 1.276 1.56 1.56 0 0 1-3.106 0 1.56 1.56 0 0 0-2.213-1.277 1.56 1.56 0 0 1-1.553-2.689 1.56 1.56 0 0 0 0-2.554 1.56 1.56 0 0 1 1.552-2.688 1.56 1.56 0 0 0 2.213-1.277" stroke="currentColor" stroke-linecap="round" stroke-linejoin="round"/><path d="M8 10a2 2 0 1 0 0-4 2 2 0 0 0 0 4Z" stroke="currentColor" stroke-linecap="round" stroke-linejoin="round"/></svg>