<svg width="16" height="16" fill="none" xmlns="http://www.w3.org/2000/svg"><path d="M13.333 7.5a.5.5 0 1 1 0 1H12a.5.5 0 0 1 0-1h1.333ZM13.333 10.167a.5.5 0 1 1 0 1H12a.5.5 0 0 1 0-1h1.333ZM13.333 12.833a.5.5 0 1 1 0 1H12a.5.5 0 1 1 0-1h1.333ZM13.333 2.167a.5.5 0 1 1 0 1H12a.5.5 0 0 1 0-1h1.333ZM13.333 4.833a.5.5 0 1 1 0 1H12a.5.5 0 0 1 0-1h1.333ZM4 7.5a.5.5 0 0 1 0 1H2.667a.5.5 0 0 1 0-1H4ZM4 10.167a.5.5 0 1 1 0 1H2.667a.5.5 0 0 1 0-1H4ZM4 12.833a.5.5 0 0 1 0 1H2.667a.5.5 0 1 1 0-1H4ZM4 2.167a.5.5 0 1 1 0 1H2.667a.5.5 0 0 1 0-1H4ZM4 4.833a.5.5 0 0 1 0 1H2.667a.5.5 0 1 1 0-1H4Z" fill="currentColor"/><path d="M11.5 2.666a.833.833 0 0 0-.833-.833h-.904a1.832 1.832 0 0 1-3.526 0h-.904a.833.833 0 0 0-.833.833v10.667a.833.833 0 0 0 .833.833h5.334a.833.833 0 0 0 .833-.833V2.666Zm1 10.667a1.833 1.833 0 0 1-1.833 1.833H5.333A1.833 1.833 0 0 1 3.5 13.333V2.666A1.833 1.833 0 0 1 5.333.833h1c.48 0 .776.38.86.706a.835.835 0 0 0 1.615 0c.083-.326.378-.706.859-.706h1A1.833 1.833 0 0 1 12.5 2.666v10.667Z" fill="currentColor"/></svg>