<svg width="16" height="16" fill="none" xmlns="http://www.w3.org/2000/svg"><g clip-path="url(#a)" fill="currentColor"><path d="M14.164 8a.167.167 0 0 0-.049-.117L12.53 6.298a.167.167 0 0 0-.181-.037l-.054.037-1.584 1.585a.167.167 0 0 0 0 .235l1.583 1.584a.166.166 0 0 0 .236 0l1.585-1.584a.167.167 0 0 0 .05-.118Zm1 0c0 .31-.123.606-.342.825l-1.585 1.585a1.166 1.166 0 0 1-1.65 0l-1.583-1.585a1.168 1.168 0 0 1 0-1.65l1.584-1.584a1.168 1.168 0 0 1 1.65 0l1.584 1.585c.219.218.342.515.342.824ZM5.338 8a.166.166 0 0 0-.049-.117v-.001L3.705 6.298a.167.167 0 0 0-.235 0L1.885 7.883a.166.166 0 0 0 0 .235l1.584 1.584a.166.166 0 0 0 .182.036l.054-.036L5.29 8.118l.036-.054A.167.167 0 0 0 5.338 8Zm1 0c0 .31-.122.606-.34.825L4.411 10.41a1.167 1.167 0 0 1-1.65 0L1.179 8.825a1.168 1.168 0 0 1 0-1.65l1.585-1.584a1.166 1.166 0 0 1 1.65 0l1.584 1.585.077.085c.17.207.264.468.264.739ZM9.738 12.35l-.036-.055-1.585-1.584a.166.166 0 0 0-.235 0l-1.585 1.584a.169.169 0 0 0 0 .236l1.585 1.584a.167.167 0 0 0 .235 0l1.585-1.584.036-.054a.166.166 0 0 0 0-.127Zm1.013.063a1.166 1.166 0 0 1-.265.74l-.077.085-1.585 1.584a1.167 1.167 0 0 1-1.65 0L5.59 13.238a1.168 1.168 0 0 1 0-1.65l1.585-1.584a1.168 1.168 0 0 1 1.65 0l1.584 1.584a1.166 1.166 0 0 1 .342.825ZM9.751 3.587a.166.166 0 0 0-.049-.117v-.001L8.118 1.885a.167.167 0 0 0-.235 0L6.298 3.47a.166.166 0 0 0 0 .235L7.883 5.29a.167.167 0 0 0 .235 0l1.584-1.584.036-.053a.167.167 0 0 0 .013-.065Zm1 0c0 .31-.122.607-.34.825L8.824 5.996a1.168 1.168 0 0 1-1.65 0L5.592 4.412a1.168 1.168 0 0 1 0-1.65l1.585-1.584a1.166 1.166 0 0 1 1.65 0l1.584 1.585.077.085c.17.207.264.468.264.74Z"/></g><defs><clipPath id="a"><path fill="#fff" d="M0 0h16v16H0z"/></clipPath></defs></svg>