<svg width="12" height="12" viewBox="0 0 12 12" fill="none" xmlns="http://www.w3.org/2000/svg">
<g clip-path="url(#clip0_30351_6277)">
<path fill-rule="evenodd" clip-rule="evenodd" d="M0.761719 6.0002C0.761719 3.1076 3.10663 0.762695 5.99922 0.762695L6.36712 1.75335C6.24586 1.74299 6.12316 1.7377 5.99922 1.7377C3.6451 1.7377 1.73672 3.64608 1.73672 6.0002C1.73672 8.35431 3.6451 10.2627 5.99922 10.2627C7.06278 10.2627 8.03431 9.87378 8.78118 9.2298L8.91845 9.11144L9.41787 9.96822C8.50071 10.759 7.30524 11.2377 5.99922 11.2377C3.10663 11.2377 0.761719 8.89279 0.761719 6.0002ZM8.60207 7.77148C8.36329 7.67398 8.14863 7.5296 7.96954 7.34978C7.53925 7.97658 6.81754 8.38769 5.9998 8.38769C4.68122 8.38769 3.6123 7.31877 3.6123 6.00019C3.6123 4.6816 4.68122 3.61269 5.9998 3.61269C6.42563 3.61269 6.82541 3.72416 7.17157 3.91953C7.25488 3.96656 7.3354 4.01863 7.41211 4.075V4.06269C7.41211 3.85055 7.41211 3.74449 7.47801 3.67859C7.54391 3.61269 7.64998 3.61269 7.86211 3.61269H7.93711C8.14924 3.61269 8.25531 3.61269 8.32121 3.67859C8.38711 3.74449 8.38711 3.85055 8.38711 4.06269V4.10019V5.96928C8.38724 5.97956 8.3873 5.98987 8.3873 6.00019L8.38725 6.01659C8.39601 6.52679 8.81233 6.93768 9.32461 6.93768C9.83704 6.93768 10.2534 6.52655 10.262 6.01616C10.2618 6.01086 10.2617 6.00554 10.2617 6.0002C10.2617 3.77005 8.54895 1.93991 6.36712 1.75335L5.99922 0.762695C8.88492 0.762695 11.2255 3.09644 11.2367 5.97952C11.237 5.98637 11.2371 5.99326 11.2371 6.00018C11.2371 7.05642 10.3809 7.91268 9.32461 7.91268C9.06919 7.91268 8.82481 7.86234 8.60207 7.77148ZM8.91845 9.11144C8.97569 9.06209 9.0043 9.03741 9.03353 9.02408C9.10348 8.99217 9.18489 8.99819 9.24939 9.04005C9.27634 9.05754 9.30101 9.08615 9.35036 9.14339L9.46873 9.28067L9.49321 9.30907C9.63174 9.46972 9.701 9.55005 9.69413 9.643C9.68725 9.73594 9.60692 9.8052 9.44627 9.94373L9.41787 9.96822L8.91845 9.11144ZM7.41211 6.00018V6.02391C7.39944 6.79308 6.77199 7.41269 5.9998 7.41269C5.2197 7.41269 4.5873 6.78029 4.5873 6.00019C4.5873 5.22008 5.2197 4.58769 5.9998 4.58769C6.77198 4.58769 7.39943 5.20728 7.41211 5.97644V6.00018Z" fill="#CCCCCC"/>
</g>
<defs>
<clipPath id="clip0_30351_6277">
<rect width="12" height="12" fill="white"/>
</clipPath>
</defs>
</svg>
