<svg width="60" height="60" viewBox="0 0 60 60" fill="none" xmlns="http://www.w3.org/2000/svg">
<path d="M46.7982 14.5088C46.9124 13.9039 47.1194 13.3995 47.4192 12.9957C47.7191 12.5918 48.0428 12.2776 48.3904 12.0529C48.7568 11.8182 49.2238 11.5651 49.7916 11.2935C50.4341 10.9815 50.9181 10.695 51.2435 10.4342C51.5838 10.1774 51.8126 9.83012 51.9298 9.39247C52.0622 8.89834 51.9708 8.43503 51.6555 8.00253C51.3589 7.5599 50.8754 7.24877 50.2049 7.06911C49.5494 6.89346 48.9321 6.93234 48.3532 7.18577C48.2306 7.23679 48.1116 7.29601 47.9962 7.36341C47.263 7.79166 46.3044 7.98278 45.6482 7.44388C45.0454 6.9488 44.9283 6.04598 45.5263 5.54512C46.0693 5.09036 46.6832 4.74727 47.3679 4.51586C48.5066 4.14005 49.739 4.12981 51.065 4.48512C52.093 4.76058 52.9323 5.17459 53.5826 5.72715C54.2517 6.26958 54.7061 6.89823 54.9457 7.61309C55.1891 8.31383 55.2105 9.03832 55.01 9.78656C54.8322 10.4501 54.5747 10.9939 54.2375 11.418C53.919 11.832 53.5691 12.1544 53.1879 12.3851C52.8216 12.6199 52.3639 12.868 51.8148 13.1294C51.1798 13.4132 50.681 13.6956 50.3182 13.9767C49.9593 14.2437 49.6893 14.6253 49.5084 15.1216L49.4396 15.3272C49.2081 16.0192 48.4779 16.4115 47.773 16.2227C47.0705 16.0344 46.6345 15.3336 46.7761 14.6203L46.7982 14.5088ZM48.5045 20.2091C48.2726 21.0746 47.383 21.5882 46.5176 21.3563L46.3441 21.3098C45.4786 21.0779 44.965 20.1883 45.1969 19.3228C45.4288 18.4574 46.3184 17.9437 47.1839 18.1757L47.3574 18.2221C48.2228 18.454 48.7364 19.3436 48.5045 20.2091Z" fill="url(#paint0_linear_1523_43641)" style=""/>
<path opacity="0.5" d="M40.7012 27C33.6865 27.0002 28 31.9763 28 38.1143C28.0002 44.2521 33.6866 49.2273 40.7012 49.2275C47.716 49.2275 53.4031 44.2522 53.4033 38.1143C53.4033 31.9762 47.7161 27 40.7012 27Z" fill="url(#paint1_linear_1523_43641)" style=""/>
<path d="M24 15C35.0457 15 44 22.835 44 32.5C44 42.165 35.0457 50 24 50C21.2834 50 18.6935 49.5255 16.332 48.667L8.625 50.5938C7.89079 50.7773 7.2264 50.1104 7.41309 49.377L8.81055 43.8838C5.81205 40.8235 4 36.8471 4 32.5C4 22.835 12.9543 15 24 15Z" fill="url(#paint2_linear_1523_43641)" style=""/>
<path d="M16.7831 38.9243C17.2464 38.4147 18.0339 38.3764 18.5448 38.8374C18.5463 38.8387 18.551 38.8425 18.5575 38.8481C18.5705 38.8593 18.5937 38.8783 18.6259 38.9048C18.6907 38.958 18.7937 39.0398 18.9316 39.1401C19.208 39.3411 19.6221 39.6157 20.1523 39.8911C21.2167 40.444 22.7163 40.9848 24.4999 40.9848C26.2836 40.9848 27.7831 40.444 28.8476 39.8911C29.3779 39.6156 29.7919 39.3411 30.0683 39.1401C30.2061 39.0399 30.3091 38.958 30.3739 38.9048C30.4058 38.8786 30.4283 38.8594 30.4413 38.8481L30.4521 38.8393C30.9629 38.3761 31.7527 38.4139 32.2167 38.9243C32.6808 39.435 32.6432 40.2256 32.1327 40.6899L31.3456 39.8247C32.1315 40.6892 32.1321 40.6906 32.1317 40.6909H32.1308L32.1249 40.6968C32.1217 40.6996 32.1177 40.7035 32.1132 40.7075C32.1042 40.7155 32.0923 40.7254 32.078 40.7378C32.0492 40.7627 32.0097 40.7964 31.9599 40.8374C31.8602 40.9192 31.7184 41.0304 31.538 41.1616C31.1777 41.4236 30.658 41.767 29.9999 42.1089C28.6874 42.7907 26.791 43.4848 24.4999 43.4848C22.2087 43.4848 20.3115 42.7907 18.9989 42.1089C18.3409 41.767 17.8211 41.4236 17.4608 41.1616C17.2805 41.0304 17.1386 40.9192 17.039 40.8374C16.9892 40.7965 16.9496 40.7627 16.9208 40.7378C16.9065 40.7254 16.8946 40.7155 16.8857 40.7075C16.8812 40.7036 16.878 40.6996 16.8749 40.6968C16.8733 40.6953 16.8713 40.694 16.87 40.6928L16.8681 40.6909C16.8677 40.6906 16.8671 40.69 17.7079 39.7651L16.8671 40.6899C16.3563 40.2255 16.3187 39.4351 16.7831 38.9243Z" fill="#252526" style="fill:#252526;fill:color(display-p3 0.1451 0.1451 0.1490);fill-opacity:1;"/>
<defs>
<linearGradient id="paint0_linear_1523_43641" x1="48.695" y1="8.47444" x2="54.6484" y2="20.5137" gradientUnits="userSpaceOnUse">
<stop stop-color="white" style="stop-color:white;stop-opacity:1;"/>
<stop offset="1" stop-color="#999999" style="stop-color:#999999;stop-color:color(display-p3 0.6000 0.6000 0.6000);stop-opacity:1;"/>
</linearGradient>
<linearGradient id="paint1_linear_1523_43641" x1="40.7017" y1="27" x2="28.819" y2="46.1562" gradientUnits="userSpaceOnUse">
<stop stop-color="white" style="stop-color:white;stop-opacity:1;"/>
<stop offset="1" stop-color="#999999" style="stop-color:#999999;stop-color:color(display-p3 0.6000 0.6000 0.6000);stop-opacity:1;"/>
</linearGradient>
<linearGradient id="paint2_linear_1523_43641" x1="24" y1="15" x2="43.1926" y2="45.3977" gradientUnits="userSpaceOnUse">
<stop stop-color="white" style="stop-color:white;stop-opacity:1;"/>
<stop offset="1" stop-color="#999999" style="stop-color:#999999;stop-color:color(display-p3 0.6000 0.6000 0.6000);stop-opacity:1;"/>
</linearGradient>
</defs>
</svg>
