<svg width="16" height="16" viewBox="0 0 16 16" fill="none" xmlns="http://www.w3.org/2000/svg">
    <g clip-path="url(#clip0_6452_7183)">
        <rect width="16" height="16" rx="3.45263" fill="#858699" />
        <path
            d="M12.2368 1.25094C12.3937 1.11023 12.4035 1.1053 12.5186 1.0984C12.7049 1.08479 12.8754 1.17397 13.1659 1.43843C13.8448 2.05534 14.7904 3.32365 15.3781 4.40677L15.6051 4.82717L15.9262 4.98684C16.2358 5.14333 16.744 5.46396 16.9561 5.63599C17.0519 5.71524 17.0654 5.71649 17.1651 5.6777C17.6153 5.50253 18.2606 5.73526 18.8293 6.2809C19.3414 6.7717 19.8312 7.61059 20.0191 8.31044C20.0465 8.42309 20.0835 8.66497 20.0967 8.84524C20.1396 9.47847 19.936 9.98475 19.5449 10.2137C19.4654 10.2596 19.4601 10.2723 19.4623 10.4711C19.4804 11.4194 19.225 12.3664 18.7114 13.2896C18.1318 14.326 17.0994 15.398 15.7025 16.4081C14.9524 16.954 13.177 17.9879 12.3746 18.3509C10.4524 19.2163 8.91166 19.5482 7.57314 19.3842C6.77471 19.2875 5.87059 18.9764 5.33586 18.6146C5.19511 18.5173 5.17261 18.5113 5.06506 18.542C4.49267 18.7062 3.7431 18.368 3.10636 17.6612C2.85234 17.3785 2.44218 16.6851 2.30926 16.3138C2.00183 15.4449 2.06297 14.6604 2.47242 14.1921C2.57824 14.0715 2.58214 14.0664 2.55902 13.8636C2.52086 13.5316 2.50332 13.0402 2.52075 12.7231L2.53445 12.4265L2.08956 11.6403C1.40092 10.415 0.96408 9.38589 0.795326 8.59978C0.706235 8.1687 0.71181 7.97758 0.821238 7.83607C0.888007 7.75068 1.10608 7.66189 1.3692 7.61329C2.03207 7.49696 3.47755 7.60246 5.08568 7.88636L5.25321 7.91481L5.61963 7.59049C6.22911 7.05062 6.63487 6.74788 7.38132 6.28245C8.15926 5.79574 9.03735 5.39508 10.026 5.07804L10.3428 4.97633L10.5175 4.51914C11.1418 2.87106 11.7809 1.6553 12.2368 1.25094ZM7.00746 9.69741C6.30178 10.1048 5.9481 10.3082 5.68883 10.5365C4.63906 11.4611 4.24723 12.9257 4.69419 14.2512C4.80457 14.5785 5.00797 14.9315 5.41526 15.6369C5.82269 16.3426 6.02692 16.6958 6.25523 16.955C7.17968 18.0047 8.64368 18.3969 9.96911 17.9502C10.2965 17.8398 10.6499 17.636 11.3556 17.2286L15.4151 14.8849C16.1206 14.4776 16.4732 14.2736 16.7324 14.0454C17.7823 13.1209 18.1753 11.6566 17.7284 10.331C17.618 10.0037 17.4134 9.65069 17.006 8.94501C16.5987 8.23962 16.3956 7.88645 16.1673 7.62723C15.2428 6.57732 13.7777 6.18475 12.4521 6.63174C12.1249 6.74213 11.7723 6.94641 11.067 7.35366L7.00746 9.69741Z"
            fill="#191A23" />
        <rect x="7.39844" y="12.5337" width="1.60361" height="3.33058" rx="0.801807"
            transform="rotate(-30 7.39844 12.5337)" fill="#191A23" />
        <rect x="11.7249" y="10.0358" width="1.60361" height="3.33058" rx="0.801807"
            transform="rotate(-30 11.7249 10.0358)" fill="#191A23" />
    </g>
    <defs>
        <clipPath id="clip0_6452_7183">
            <rect width="16" height="16" rx="3.45263" fill="white" />
        </clipPath>
    </defs>
</svg>
