<svg width="60" height="60" viewBox="0 0 60 60" fill="none" xmlns="http://www.w3.org/2000/svg">
<path opacity="0.5" d="M3 21C3 18.7909 4.79086 17 7 17H15.3431C16.404 17 17.4214 17.4214 18.1716 18.1716L19.8284 19.8284C20.5786 20.5786 21.596 21 22.6569 21H39C41.2091 21 43 22.7909 43 25V47C43 49.2091 41.2091 51 39 51H7C4.79086 51 3 49.2091 3 47V21Z" fill="url(#paint0_linear_1523_43168)" style=""/>
<path d="M3 29C3 26.7909 4.79086 25 7 25H39C41.2091 25 43 26.7909 43 29V47C43 49.2091 41.2091 51 39 51H7C4.79086 51 3 49.2091 3 47V29Z" fill="url(#paint1_linear_1523_43168)" style=""/>
<path d="M11.9273 34.3564C12.2604 33.8015 12.9564 33.5987 13.5299 33.8682L13.6431 33.9277L17.2134 36.0703C18.67 36.9442 18.67 39.0558 17.2134 39.9297L13.6431 42.0723C13.0512 42.4274 12.2825 42.2354 11.9273 41.6435C11.5722 41.0516 11.7642 40.2829 12.356 39.9277L15.5689 38L12.356 36.0723L12.2506 36.001C11.7427 35.6219 11.5942 34.9116 11.9273 34.3564Z" fill="#F7F7F7" style="fill:#F7F7F7;fill:color(display-p3 0.9678 0.9678 0.9678);fill-opacity:1;"/>
<path d="M34 36.75C34.6904 36.75 35.25 37.3096 35.25 38C35.25 38.6904 34.6904 39.25 34 39.25H28C27.3096 39.25 26.75 38.6904 26.75 38C26.75 37.3096 27.3096 36.75 28 36.75H34Z" fill="#F7F7F7" style="fill:#F7F7F7;fill:color(display-p3 0.9678 0.9678 0.9678);fill-opacity:1;"/>
<path fill-rule="evenodd" clip-rule="evenodd" d="M41.8062 8.65639C42.1041 9.36256 41.773 10.1765 41.0669 10.4743L38.7212 11.4635L39.7105 13.8092C40.0083 14.5154 39.6772 15.3293 38.9711 15.6271C38.2649 15.9249 37.451 15.5939 37.1532 14.8877L36.0561 12.2863C35.52 11.0152 36.1159 9.55018 37.387 9.01411L39.9884 7.91701C40.6945 7.61919 41.5084 7.95022 41.8062 8.65639ZM53.8656 13.5613C53.1594 13.8591 52.8284 14.673 53.1262 15.3792L54.1154 17.7248L51.7698 18.7141C51.0636 19.0119 50.7326 19.8258 51.0304 20.5319C51.3282 21.2381 52.1421 21.5692 52.8483 21.2713L55.4496 20.1742C56.7208 19.6382 57.3166 18.1731 56.7805 16.902L55.6834 14.3007C55.3856 13.5945 54.5717 13.2635 53.8656 13.5613ZM48.3901 11.9109C48.4308 11.1456 47.8433 10.4922 47.078 10.4516C46.3127 10.411 45.6593 10.9984 45.6187 11.7638L45.3689 16.4671C45.3283 17.2324 45.9157 17.8858 46.6811 17.9264C47.4464 17.9671 48.0998 17.3796 48.1404 16.6143L48.3901 11.9109Z" fill="url(#paint2_linear_1523_43168)" style=""/>
<defs>
<linearGradient id="paint0_linear_1523_43168" x1="9" y1="30" x2="7.12203" y2="-0.630106" gradientUnits="userSpaceOnUse">
<stop stop-color="#9A9A9A" style="stop-color:#9A9A9A;stop-color:color(display-p3 0.6043 0.6043 0.6043);stop-opacity:1;"/>
<stop offset="1" stop-color="#1A1A1A" style="stop-color:#1A1A1A;stop-color:color(display-p3 0.1024 0.1024 0.1024);stop-opacity:1;"/>
</linearGradient>
<linearGradient id="paint1_linear_1523_43168" x1="23" y1="27" x2="33.3167" y2="51.2541" gradientUnits="userSpaceOnUse">
<stop stop-color="#606060" style="stop-color:#606060;stop-color:color(display-p3 0.3753 0.3753 0.3753);stop-opacity:1;"/>
<stop offset="1" stop-color="#212121" style="stop-color:#212121;stop-color:color(display-p3 0.1285 0.1285 0.1285);stop-opacity:1;"/>
</linearGradient>
<linearGradient id="paint2_linear_1523_43168" x1="44.8433" y1="11.4353" x2="46.832" y2="23.0447" gradientUnits="userSpaceOnUse">
<stop stop-color="#7B7B7B" style="stop-color:#7B7B7B;stop-color:color(display-p3 0.4843 0.4843 0.4843);stop-opacity:1;"/>
<stop offset="1" stop-color="#424242" style="stop-color:#424242;stop-color:color(display-p3 0.2586 0.2586 0.2586);stop-opacity:1;"/>
</linearGradient>
</defs>
</svg>
