<svg width="16" height="16" fill="none" xmlns="http://www.w3.org/2000/svg"><path d="M8.51 14.348a.333.333 0 0 1-.51-.283V8.6a.333.333 0 0 1 .51-.283l3.919 2.45a.666.666 0 0 1 0 1.13l-3.919 2.45ZM9.413 2.587l1.253-1.253" stroke="currentColor" stroke-linecap="round" stroke-linejoin="round"/><path d="M12 7.333a2.667 2.667 0 0 0-2.667-2.667H6.667A2.667 2.667 0 0 0 4 7.333v2a4.066 4.066 0 0 0 1.333 3" stroke="currentColor" stroke-linecap="round" stroke-linejoin="round"/><path d="M13.98 3.334c0 1.4-1.067 2.533-2.334 2.667M2 14c0-1.4 1.133-2.6 2.533-2.666M4 8.666H1.333M4.353 6C3.067 5.868 2 4.735 2 3.335M5.333 1.334l1.253 1.253M6 4.754v-.666a2.002 2.002 0 1 1 4 0v.666" stroke="currentColor" stroke-linecap="round" stroke-linejoin="round"/></svg>