<svg width="105" height="46" fill="none" xmlns="http://www.w3.org/2000/svg"><path d="M22.89 10.897c0 .784.126 1.507.38 2.168a5.573 5.573 0 0 0 1.03 1.725c.434.487.934.87 1.502 1.15a4.437 4.437 0 0 0 1.836.391c.642 0 1.247-.13 1.815-.392a4.774 4.774 0 0 0 1.523-1.15 5.35 5.35 0 0 0 1.053-1.723c.254-.662.38-1.385.38-2.169s-.126-1.506-.38-2.168a5.35 5.35 0 0 0-1.053-1.724 4.458 4.458 0 0 0-1.523-1.123 4.062 4.062 0 0 0-1.815-.418c-.642 0-1.254.139-1.837.417a4.523 4.523 0 0 0-1.5 1.124 5.573 5.573 0 0 0-1.03 1.724 6.004 6.004 0 0 0-.381 2.168Zm-4.593 0c0-1.463.232-2.821.695-4.075.463-1.271 1.105-2.377 1.926-3.318a8.663 8.663 0 0 1 2.935-2.194C25.003.77 26.264.5 27.638.5c1.36 0 2.614.27 3.763.81a8.603 8.603 0 0 1 2.957 2.194c.837.94 1.486 2.047 1.95 3.318.462 1.254.694 2.612.694 4.075s-.232 2.83-.695 4.102a10.229 10.229 0 0 1-1.949 3.291 8.903 8.903 0 0 1-2.956 2.22c-1.15.523-2.405.784-3.764.784-1.374 0-2.635-.26-3.785-.783a8.97 8.97 0 0 1-2.935-2.22c-.821-.941-1.463-2.038-1.926-3.292-.463-1.272-.695-2.639-.695-4.102ZM71.877 5.078h-6.356V16.716h6.356v4.578H60.174V.5h11.703v4.578Z" fill="currentColor"/><path d="M71.83 8.31h5.948v4.43H71.83V8.31Z" fill="#28B894"/><path d="M24.1 24.705v11.001c0 .59.017 1.198.053 1.825.053.608.187 1.162.402 1.663.232.501.59.912 1.072 1.234.482.305 1.16.457 2.036.457.875 0 1.545-.152 2.01-.457.482-.322.839-.733 1.071-1.234.232-.5.366-1.055.402-1.663.054-.627.08-1.235.08-1.825v-11h5.225V36.43c0 3.148-.723 5.446-2.17 6.895-1.429 1.45-3.635 2.174-6.618 2.174-2.983 0-5.198-.725-6.645-2.174-1.447-1.449-2.17-3.747-2.17-6.895V24.705h5.251ZM91.168 37.85 80.42 45.502v-6.511l5.65-3.896-5.65-3.868v-6.511l10.75 7.68 3.303 2.727-3.304 2.727Z" fill="currentColor"/><path fill="#28B894" d="M94.342 39.779h10.283v5.565H94.342z"/><path d="M0 10.873C0 5.224 4.58.646 10.23.646h5.186v4.898h-5.187a5.33 5.33 0 0 0 0 10.661h5.187v4.898h-5.187C4.58 21.102 0 16.523 0 10.873Z" fill="currentColor"/><path fill-rule="evenodd" clip-rule="evenodd" d="M8.788 24.559c3.501 0 6.34 2.55 6.34 6.05a6.31 6.31 0 0 1-.836 3.149 6.754 6.754 0 0 1 2.276 5.064c0 3.74-3.032 6.483-6.771 6.483H1.009V24.559h7.78ZM5.331 40.983h4.043a2.305 2.305 0 1 0 0-4.61H5.331v4.61Zm0-8.356h3.335a1.873 1.873 0 1 0 0-3.746H5.331v3.745Z" fill="currentColor"/><path d="M47.255 3.094h-4.898v15.56h4.898a7.78 7.78 0 0 0 0-15.56Z" stroke="currentColor" stroke-width="4.898"/><path d="M39.907 24.703v20.458h7.348c5.65 0 10.23-4.58 10.23-10.229 0-5.65-4.58-10.229-10.23-10.229h-7.348Zm12.679 10.23a5.33 5.33 0 0 1-5.33 5.33h-2.45V29.602h2.45a5.33 5.33 0 0 1 5.33 5.33ZM60.078 24.703v20.458h7.347c5.65 0 10.23-4.58 10.23-10.229 0-5.65-4.58-10.229-10.23-10.229h-7.347Zm12.678 10.23a5.33 5.33 0 0 1-5.33 5.33h-2.45V29.602h2.45a5.33 5.33 0 0 1 5.33 5.33Z" fill="currentColor"/></svg>