<svg xmlns="http://www.w3.org/2000/svg" width="30" height="31" fill="none"><path d="M11.24.834h7.52l.863 4.316c.72.322 1.398.716 2.028 1.173l4.171-1.412 3.76 6.512-3.308 2.908a11.438 11.438 0 0 1 0 2.34l3.308 2.907-3.76 6.512-4.171-1.411c-.63.457-1.309.85-2.027 1.172l-.864 4.316h-7.52l-.863-4.316a11.324 11.324 0 0 1-2.027-1.172L4.18 26.09l-3.76-6.512 3.308-2.907a11.451 11.451 0 0 1 0-2.34L.419 11.423l3.76-6.512L8.35 6.323c.63-.457 1.309-.851 2.027-1.173l.864-4.316Zm2.187 2.667-.721 3.606-.7.258a8.657 8.657 0 0 0-2.55 1.474l-.574.479-3.487-1.18-1.574 2.725 2.763 2.429-.125.734a8.734 8.734 0 0 0 0 2.95l.125.734-2.763 2.428 1.574 2.725 3.487-1.18.574.479a8.66 8.66 0 0 0 2.55 1.474l.7.258.721 3.607h3.147l.721-3.607.7-.258a8.66 8.66 0 0 0 2.55-1.474l.574-.478 3.487 1.18 1.574-2.726-2.763-2.428.125-.735a8.742 8.742 0 0 0 0-2.949l-.125-.734 2.763-2.429-1.574-2.725-3.487 1.18-.574-.479a8.655 8.655 0 0 0-2.55-1.474l-.7-.258-.72-3.606h-3.148Zm1.573 8a4 4 0 1 0 0 8 4 4 0 0 0 0-8Zm-6.666 4a6.667 6.667 0 1 1 13.333 0 6.667 6.667 0 0 1-13.333 0Z" fill="#fff"/></svg>