<svg width="17" height="17" fill="none" xmlns="http://www.w3.org/2000/svg"><g clip-path="url(#a)"><rect width="17" height="17" rx="8.5" fill="url(#b)"/><path d="M13.002 1.33c.167-.15.176-.156.298-.164.198-.014.38.082.689.363.721.656 1.726 2.003 2.35 3.153l.241.447.342.17a8.05 8.05 0 0 1 1.094.689c.102.084.116.087.222.045.478-.186 1.164.06 1.768.64.544.522 1.065 1.414 1.264 2.157.03.12.069.377.083.569.045.672-.171 1.21-.587 1.453-.084.049-.09.063-.087.274.019 1.008-.253 2.013-.799 2.994-.616 1.101-1.712 2.24-3.196 3.313-.797.58-2.683 1.68-3.536 2.066-2.042.919-3.68 1.27-5.102 1.097-.848-.103-1.808-.434-2.376-.818-.15-.103-.174-.11-.288-.077-.609.174-1.405-.184-2.082-.935-.27-.3-.705-1.039-.846-1.433-.327-.923-.262-1.757.173-2.254.112-.128.116-.134.091-.348a8.395 8.395 0 0 1-.04-1.213l.015-.314-.472-.836c-.732-1.302-1.197-2.396-1.377-3.23-.094-.459-.088-.662.028-.812.071-.09.303-.185.583-.237.704-.124 2.24-.011 3.948.29l.179.031.39-.345a12.07 12.07 0 0 1 1.87-1.39c.827-.517 1.76-.942 2.81-1.279l.338-.108.185-.487c.663-1.751 1.343-3.042 1.827-3.471Zm-5.557 8.974c-.75.433-1.125.649-1.4.891a3.689 3.689 0 0 0-1.058 3.947c.117.348.334.723.767 1.473.433.75.649 1.124.891 1.4a3.689 3.689 0 0 0 3.947 1.057c.348-.118.723-.333 1.473-.766l4.313-2.49c.75-.433 1.125-.65 1.4-.893a3.688 3.688 0 0 0 1.058-3.946c-.117-.348-.334-.723-.767-1.472-.433-.75-.65-1.126-.892-1.401a3.688 3.688 0 0 0-3.946-1.057c-.348.117-.723.334-1.473.767l-4.313 2.49Z" fill="url(#c)"/><rect x="7.861" y="13.317" width="1.704" height="3.539" rx=".852" transform="rotate(-30 7.86 13.317)" fill="#fff"/><rect x="12.458" y="10.663" width="1.704" height="3.539" rx=".852" transform="rotate(-30 12.458 10.663)" fill="#fff"/></g><defs><linearGradient id="b" x1="8.5" y1="0" x2="8.5" y2="17" gradientUnits="userSpaceOnUse"><stop stop-color="#6C4DFF"/><stop offset="1" stop-color="#583ED3"/></linearGradient><linearGradient id="c" x1="7.082" y1="4.708" x2="15.034" y2="18.483" gradientUnits="userSpaceOnUse"><stop stop-color="#fff" stop-opacity=".8"/><stop offset=".438" stop-color="#fff"/></linearGradient><clipPath id="a"><rect width="17" height="17" rx="8.5" fill="#fff"/></clipPath></defs></svg>