<svg xmlns="http://www.w3.org/2000/svg" width="53" height="42" fill="none"><style>@keyframes breathe{0%,to{transform:scale(1);opacity:.5}50%{transform:scale(1.05);opacity:1}}</style><g style="animation:breathe 2s ease-in-out infinite;transform-origin:center"><g opacity=".5"><g filter="url(#filter0_f_4476_3560)"><ellipse cx="5.951" cy="9.227" rx="5.951" ry="9.227" transform="rotate(-11.629 74.996 -22.675) skewX(.011)" fill="#7D8FFF"/></g><g filter="url(#filter1_f_4476_3560)"><ellipse cx="5.951" cy="9.227" rx="5.951" ry="9.227" transform="matrix(-.99788 .06514 .06495 .99789 41.954 9.818)" fill="#7D8FFF"/></g></g><g filter="url(#filter2_dd_4476_3560)"><mask id="mask0_4476_3560" style="mask-type:alpha" maskUnits="userSpaceOnUse" x="9" y="13" width="10" height="20"><path transform="rotate(-7.682 9.326 14.565)" fill="#F8F8F8" d="M9.326 14.565h6.435v18.134H9.326z"/></mask><g mask="url(#mask0_4476_3560)"><path transform="rotate(-7.682 5.669 14.041)" fill="#D2D3E0" d="M5.669 14.041h16.977v1.038H5.669z" style="mix-blend-mode:plus-lighter"/><path transform="rotate(-7.682 5.882 15.627)" fill="#D2D3E0" d="M5.882 15.627h16.977v1.038H5.882z" style="mix-blend-mode:plus-lighter"/><path transform="rotate(-7.682 6.098 17.215)" fill="#D2D3E0" d="M6.098 17.215h16.977v1.038H6.098z" style="mix-blend-mode:plus-lighter"/><path transform="rotate(-7.682 6.312 18.8)" fill="#D2D3E0" d="M6.312 18.801h16.977v1.038H6.312z" style="mix-blend-mode:plus-lighter"/><path transform="rotate(-7.682 6.525 20.389)" fill="#D2D3E0" d="M6.525 20.389h16.977v1.038H6.525z" style="mix-blend-mode:plus-lighter"/><path transform="rotate(-7.682 6.74 21.975)" fill="#D2D3E0" d="M6.739 21.975h16.977v1.038H6.739z" style="mix-blend-mode:plus-lighter"/><path transform="rotate(-7.682 6.952 23.56)" fill="#D2D3E0" d="M6.952 23.561h16.977v1.038H6.952z" style="mix-blend-mode:plus-lighter"/><path transform="rotate(-7.682 7.167 25.146)" fill="#D2D3E0" d="M7.167 25.146h16.977v1.038H7.167z" style="mix-blend-mode:plus-lighter"/><path transform="rotate(-7.682 7.38 26.736)" fill="#D2D3E0" d="M7.381 26.736h16.977v1.038H7.381z" style="mix-blend-mode:plus-lighter"/><path transform="rotate(-7.682 7.595 28.322)" fill="#D2D3E0" d="M7.595 28.322h16.977v1.038H7.595z" style="mix-blend-mode:plus-lighter"/><path transform="rotate(-7.682 7.809 29.908)" fill="#D2D3E0" d="M7.809 29.908h16.977v1.038H7.809z" style="mix-blend-mode:plus-lighter"/><path transform="rotate(-7.682 8.023 31.494)" fill="#D2D3E0" d="M8.023 31.494H25v1.038H8.023z" style="mix-blend-mode:plus-lighter"/><path transform="rotate(-7.682 8.237 33.08)" fill="#D2D3E0" d="M8.237 33.08h16.977v1.038H8.237z" style="mix-blend-mode:plus-lighter"/><path transform="rotate(-7.682 8.452 34.668)" fill="#D2D3E0" d="M8.452 34.668h16.977v1.038H8.452z" style="mix-blend-mode:plus-lighter"/></g></g><g filter="url(#filter3_dd_4476_3560)"><mask id="mask1_4476_3560" style="mask-type:alpha" maskUnits="userSpaceOnUse" x="28" y="9" width="16" height="21"><path d="m42.14 12.773-4.337-3.229-9.334 11.282 11.993 8.43 3.402-3.704-7.956-5.73 6.232-7.05Z" fill="#F8F8F8"/></mask><g mask="url(#mask1_4476_3560)"><path transform="rotate(-7.682 25.222 10.223)" fill="#D2D3E0" d="M25.222 10.223h16.977v1.038H25.222z" style="mix-blend-mode:plus-lighter"/><path transform="rotate(-7.682 25.436 11.81)" fill="#D2D3E0" d="M25.436 11.81h16.977v1.038H25.436z" style="mix-blend-mode:plus-lighter"/><path transform="rotate(-7.682 25.65 13.396)" fill="#D2D3E0" d="M25.649 13.396h16.977v1.038H25.649z" style="mix-blend-mode:plus-lighter"/><path transform="rotate(-7.682 25.863 14.982)" fill="#D2D3E0" d="M25.863 14.982H42.84v1.038H25.863z" style="mix-blend-mode:plus-lighter"/><path transform="rotate(-7.682 26.077 16.572)" fill="#D2D3E0" d="M26.077 16.572h16.977v1.038H26.077z" style="mix-blend-mode:plus-lighter"/><path transform="rotate(-7.682 26.292 18.156)" fill="#D2D3E0" d="M26.292 18.156h16.977v1.038H26.292z" style="mix-blend-mode:plus-lighter"/><path transform="rotate(-7.682 26.506 19.742)" fill="#D2D3E0" d="M26.506 19.742h16.977v1.038H26.506z" style="mix-blend-mode:plus-lighter"/><path transform="rotate(-7.682 26.719 21.33)" fill="#D2D3E0" d="M26.719 21.33h16.977v1.038H26.719z" style="mix-blend-mode:plus-lighter"/><path transform="rotate(-7.682 26.934 22.918)" fill="#D2D3E0" d="M26.934 22.918h16.977v1.038H26.934z" style="mix-blend-mode:plus-lighter"/><path transform="rotate(-7.682 27.148 24.504)" fill="#D2D3E0" d="M27.148 24.504h16.977v1.038H27.148z" style="mix-blend-mode:plus-lighter"/><path transform="rotate(-7.682 27.361 26.09)" fill="#D2D3E0" d="M27.361 26.09h16.977v1.038H27.361z" style="mix-blend-mode:plus-lighter"/><path transform="rotate(-7.682 27.575 27.678)" fill="#D2D3E0" d="M27.575 27.678h16.977v1.038H27.575z" style="mix-blend-mode:plus-lighter"/><path transform="rotate(-7.682 27.79 29.262)" fill="#D2D3E0" d="M27.79 29.262h16.977V30.3H27.79z" style="mix-blend-mode:plus-lighter"/><path transform="rotate(-7.682 28.003 30.852)" fill="#D2D3E0" d="M28.003 30.852H44.98v1.038H28.003z" style="mix-blend-mode:plus-lighter"/></g></g></g><defs><filter id="filter0_f_4476_3560" x=".902" y="6.595" width="25.798" height="31.791" filterUnits="userSpaceOnUse" color-interpolation-filters="sRGB"><feFlood flood-opacity="0" result="BackgroundImageFix"/><feBlend in="SourceGraphic" in2="BackgroundImageFix" result="shape"/><feGaussianBlur stdDeviation="3.389" result="effect1_foregroundBlur_4476_3560"/></filter><filter id="filter1_f_4476_3560" x="23.867" y="3.419" width="25.495" height="31.988" filterUnits="userSpaceOnUse" color-interpolation-filters="sRGB"><feFlood flood-opacity="0" result="BackgroundImageFix"/><feBlend in="SourceGraphic" in2="BackgroundImageFix" result="shape"/><feGaussianBlur stdDeviation="3.389" result="effect1_foregroundBlur_4476_3560"/></filter><filter id="filter2_dd_4476_3560" x=".631" y="5.01" width="26.191" height="36.222" filterUnits="userSpaceOnUse" color-interpolation-filters="sRGB"><feFlood flood-opacity="0" result="BackgroundImageFix"/><feColorMatrix in="SourceAlpha" values="0 0 0 0 0 0 0 0 0 0 0 0 0 0 0 0 0 0 127 0" result="hardAlpha"/><feOffset/><feGaussianBlur stdDeviation="4.348"/><feComposite in2="hardAlpha" operator="out"/><feColorMatrix values="0 0 0 0 0.0784314 0 0 0 0 0.92549 0 0 0 0 1 0 0 0 0.4 0"/><feBlend mode="plus-lighter" in2="BackgroundImageFix" result="effect1_dropShadow_4476_3560"/><feColorMatrix in="SourceAlpha" values="0 0 0 0 0 0 0 0 0 0 0 0 0 0 0 0 0 0 0 0 0 0 0 0 0 0 0 127 0" result="hardAlpha"/><feOffset/><feGaussianBlur stdDeviation="4.348"/><feComposite in2="hardAlpha" operator="out"/><feColorMatrix values="0 0 0 0 0.0784314 0 0 0 0 0.92549 0 0 0 0 1 0 0 0 0.28 0"/><feBlend mode="plus-lighter" in2="effect1_dropShadow_4476_3560" result="effect2_dropShadow_4476_3560"/><feBlend in="SourceGraphic" in2="effect2_dropShadow_4476_3560" result="shape"/></filter><filter id="filter3_dd_4476_3560" x="19.775" y=".85" width="32.785" height="37.101" filterUnits="userSpaceOnUse" color-interpolation-filters="sRGB"><feFlood flood-opacity="0" result="BackgroundImageFix"/><feColorMatrix in="SourceAlpha" values="0 0 0 0 0 0 0 0 0 0 0 0 0 0 0 0 0 0 127 0" result="hardAlpha"/><feOffset/><feGaussianBlur stdDeviation="4.348"/><feComposite in2="hardAlpha" operator="out"/><feColorMatrix values="0 0 0 0 0.0784314 0 0 0 0 0.92549 0 0 0 0 1 0 0 0 0.12 0"/><feBlend mode="plus-lighter" in2="BackgroundImageFix" result="effect1_dropShadow_4476_3560"/><feColorMatrix in="SourceAlpha" values="0 0 0 0 0 0 0 0 0 0 0 0 0 0 0 0 0 0 127 0" result="hardAlpha"/><feOffset/><feGaussianBlur stdDeviation="4.348"/><feComposite in2="hardAlpha" operator="out"/><feColorMatrix values="0 0 0 0 0.0784314 0 0 0 0 0.92549 0 0 0 0 1 0 0 0 0.57 0"/><feBlend mode="plus-lighter" in2="effect1_dropShadow_4476_3560" result="effect2_dropShadow_4476_3560"/><feBlend in="SourceGraphic" in2="effect2_dropShadow_4476_3560" result="shape"/></filter></defs></svg>