<svg width="16" height="16" viewBox="0 0 16 16" fill="none" xmlns="http://www.w3.org/2000/svg">
<path d="M3.4158 1.62952C4.06007 0.98542 5.10544 0.985527 5.74978 1.62952L8.52908 4.40882L10.9949 1.94397C11.7867 1.15219 13.0723 1.15219 13.864 1.94397C14.6552 2.73572 14.6544 4.01956 13.8631 4.81116L11.3972 7.27698L14.1765 10.0563C14.8209 10.7006 14.8207 11.7459 14.1765 12.3903L12.5623 14.0045C11.9179 14.6486 10.8726 14.6488 10.2283 14.0045L7.449 11.2252L4.77322 13.902C4.55691 14.1183 4.28377 14.2699 3.98611 14.3405L3.22634 14.5201C1.99204 14.8127 0.901459 13.661 1.26248 12.4449L1.46951 11.7526C1.54766 11.4895 1.68953 11.2494 1.88357 11.0553L4.58084 8.35706L1.80252 5.57776C1.15815 4.9334 1.15815 3.88814 1.80252 3.24378L3.4158 1.62952ZM12.9441 2.86389C12.66 2.57979 12.1989 2.5798 11.9148 2.86389L2.80349 11.9752C2.76243 12.0164 2.73119 12.067 2.71462 12.1227L2.50955 12.8151C2.43301 13.0729 2.66392 13.3182 2.92556 13.2565L3.6863 13.0748C3.74941 13.0599 3.80743 13.0279 3.8533 12.9821L12.9431 3.89221C13.227 3.60831 13.2276 3.14804 12.9441 2.86389ZM8.36892 10.3053L11.1482 13.0846C11.2848 13.2212 11.5066 13.2219 11.6433 13.0856L13.2576 11.4713C13.3941 11.3346 13.3932 11.1128 13.2566 10.9762L12.4099 10.1295L11.491 11.0485C11.2372 11.3022 10.8249 11.3021 10.5711 11.0485C10.3173 10.7946 10.3173 10.3824 10.5711 10.1285L11.49 9.2096L10.4773 8.1969L8.36892 10.3053ZM4.82986 2.54944C4.6932 2.41313 4.47231 2.41302 4.33572 2.54944L2.72244 4.1637C2.58575 4.30038 2.58575 4.52116 2.72244 4.65784L5.50076 7.43714L7.60916 5.32874L6.58279 4.30237L5.60623 5.27991C5.35239 5.53375 4.94015 5.53375 4.6863 5.27991C4.43253 5.02606 4.43249 4.6138 4.6863 4.35999L5.66287 3.38245L4.82986 2.54944Z" fill="#CCCCCC" style="fill:#CCCCCC;fill:color(display-p3 0.8000 0.8000 0.8000);fill-opacity:1;"/>
</svg>
