<svg width="16" height="16" viewBox="0 0 16 16" fill="none" xmlns="http://www.w3.org/2000/svg">
<path d="M16 8C16 9.17333 15.7511 10.2933 15.2533 11.36C14.7556 12.4267 14.08 13.3333 13.2267 14.08L12.48 14.6133C11.1289 15.5378 9.63556 16 8 16C6.36444 16 4.87111 15.5378 3.52 14.6133L2.82667 14.08C1.93778 13.3333 1.24444 12.4267 0.746667 11.36C0.248889 10.2933 0 9.17333 0 8C0 6.54222 0.355556 5.20889 1.06667 4C1.77778 2.75556 2.73778 1.77778 3.94667 1.06667C5.19111 0.355556 6.54222 0 8 0C9.45778 0 10.7911 0.355556 12 1.06667C13.2444 1.77778 14.2222 2.75556 14.9333 4C15.6444 5.20889 16 6.54222 16 8ZM8 14.9867C9.49333 14.9867 10.8444 14.56 12.0533 13.7067C11.9822 13.3867 11.8933 13.0844 11.7867 12.8C11.5733 12.3022 11.2711 11.8756 10.88 11.52C10.5244 11.1289 10.08 10.8444 9.54667 10.6667C9.04889 10.4533 8.53333 10.3467 8 10.3467C7.64444 10.3467 7.27111 10.4 6.88 10.5067C6.52444 10.5778 6.20444 10.7022 5.92 10.88C5.63556 11.0578 5.36889 11.2711 5.12 11.52C4.87111 11.7689 4.65778 12.0533 4.48 12.3733C4.30222 12.6578 4.16 12.9778 4.05333 13.3333L4 13.7067C5.20889 14.56 6.54222 14.9867 8 14.9867ZM5.54667 7.57333C5.68889 7.89333 5.88444 8.17778 6.13333 8.42667C6.38222 8.67556 6.64889 8.87111 6.93333 9.01333C7.64444 9.29778 8.33778 9.29778 9.01333 9.01333C9.33333 8.87111 9.61778 8.67556 9.86667 8.42667C10.1156 8.17778 10.3111 7.91111 10.4533 7.62667C10.5956 7.30667 10.6667 6.96889 10.6667 6.61333C10.6667 6.22222 10.5956 5.86667 10.4533 5.54667C10.3111 5.22667 10.1156 4.94222 9.86667 4.69333C9.61778 4.44444 9.33333 4.24889 9.01333 4.10667C8.72889 3.96444 8.39111 3.89333 8 3.89333C7.60889 3.89333 7.25333 3.98222 6.93333 4.16C6.61333 4.30222 6.32889 4.49778 6.08 4.74667C5.86667 4.96 5.68889 5.22667 5.54667 5.54667C5.40444 5.86667 5.33333 6.20444 5.33333 6.56C5.33333 6.91556 5.40444 7.25333 5.54667 7.57333ZM12.96 12.9067C13.6356 12.2667 14.1333 11.52 14.4533 10.6667C14.8089 9.81333 14.9867 8.92444 14.9867 8C14.9867 6.72 14.6667 5.54667 14.0267 4.48C13.4222 3.41333 12.5867 2.57778 11.52 1.97333C10.4533 1.33333 9.28 1.01333 8 1.01333C6.72 1.01333 5.54667 1.33333 4.48 1.97333C3.41333 2.57778 2.56 3.41333 1.92 4.48C1.31556 5.54667 1.01333 6.72 1.01333 8C1.01333 8.92444 1.19111 9.81333 1.54667 10.6667C1.90222 11.52 2.4 12.2667 3.04 12.9067V12.8533C3.21778 12.32 3.44889 11.84 3.73333 11.4133C4.05333 10.9867 4.42667 10.6133 4.85333 10.2933C5.17333 10.0444 5.51111 9.84889 5.86667 9.70667C5.68889 9.56444 5.52889 9.42222 5.38667 9.28C5.10222 8.99556 4.88889 8.72889 4.74667 8.48C4.60444 8.23111 4.48 7.94667 4.37333 7.62667C4.26667 7.27111 4.21333 6.91556 4.21333 6.56C4.21333 6.06222 4.30222 5.58222 4.48 5.12C4.69333 4.65778 4.96 4.24889 5.28 3.89333C5.63556 3.53778 6.04444 3.27111 6.50667 3.09333C6.96889 2.91556 7.44889 2.82667 7.94667 2.82667C8.48 2.82667 8.97778 2.91556 9.44 3.09333C9.90222 3.27111 10.3111 3.53778 10.6667 3.89333C11.0222 4.24889 11.2889 4.65778 11.4667 5.12C11.68 5.58222 11.7689 6.06222 11.7333 6.56C11.7689 7.27111 11.6089 7.91111 11.2533 8.48C11.0756 8.76444 10.8622 9.03111 10.6133 9.28C10.4711 9.42222 10.3111 9.54667 10.1333 9.65333C10.5244 9.83111 10.88 10.0444 11.2 10.2933C11.6267 10.6133 11.9822 10.9867 12.2667 11.4133C12.5867 11.84 12.8178 12.3022 12.96 12.8V12.8533C12.96 12.8889 12.96 12.9067 12.96 12.9067Z" fill="#C5C5C5"/>
</svg>
