<svg width="13" height="12" fill="none" xmlns="http://www.w3.org/2000/svg"><g clip-path="url(#a)" stroke="#D2A8FF" stroke-linecap="round" stroke-linejoin="round"><path d="M8.415 11a1.5 1.5 0 0 0-1.1-2.5"/><path d="M8.797 10a1.5 1.5 0 0 1 1.5-1.5h.5a1 1 0 0 0 1-1v-1a2 2 0 0 0-2-2V2M9.797 6.5h.005"/><path d="M9.797 3a2 2 0 0 0-2 2 3.5 3.5 0 0 0-3.5 3.5c0-2.5 2-2.5 2-5.25a2.25 2.25 0 1 0-4.5 0 1.25 1.25 0 0 0 2.5 0c0 1.75-2 2.25-2 5.25 0 1.4 1.1 2.5 2.5 2.5h5"/></g><defs><clipPath id="a"><path fill="#fff" transform="translate(.797)" d="M0 0h12v12H0z"/></clipPath></defs></svg>