<svg xmlns="http://www.w3.org/2000/svg" width="16" height="16" fill="none"><path d="M2.368 10.915C1.342 11.777 1 14.335 1 14.335s2.557-.343 3.419-1.368c.485-.575.479-1.457-.062-1.99a1.49 1.49 0 0 0-1.99-.062ZM7.495 9.89 5.443 7.837c.364-.944.822-1.849 1.368-2.7A8.807 8.807 0 0 1 14.333 1c0 1.86-.534 5.129-4.103 7.522a15.283 15.283 0 0 1-2.735 1.367Z" stroke="currentColor" stroke-width="1.026" stroke-linecap="round" stroke-linejoin="round"/><path d="M5.444 7.839H2.025s.376-2.072 1.368-2.735c1.108-.739 3.419 0 3.419 0M7.495 9.889v3.419s2.072-.376 2.735-1.368c.739-1.107 0-3.419 0-3.419" stroke="currentColor" stroke-width="1.026" stroke-linecap="round" stroke-linejoin="round"/></svg>