<svg xmlns="http://www.w3.org/2000/svg" width="18" height="18" fill="none"><path d="M9 16.5a7.5 7.5 0 0 1 0-15c1.99 0 3.897.711 5.303 1.977C15.71 4.743 16.5 6.46 16.5 8.25A3.75 3.75 0 0 1 12.75 12h-1.688a1.313 1.313 0 0 0-1.05 2.1l.226.3a1.313 1.313 0 0 1-1.05 2.1H9Z" stroke="currentColor" stroke-linecap="round" stroke-linejoin="round"/><path d="M10.125 5.25a.375.375 0 1 0 0-.75.375.375 0 0 0 0 .75ZM13.125 8.25a.375.375 0 1 0 0-.75.375.375 0 0 0 0 .75ZM4.875 9.75a.375.375 0 1 0 0-.75.375.375 0 0 0 0 .75ZM6.375 6a.375.375 0 1 0 0-.75.375.375 0 0 0 0 .75Z" fill="currentColor" stroke="currentColor" stroke-linecap="round" stroke-linejoin="round"/></svg>