<svg width="17" height="16" fill="none" xmlns="http://www.w3.org/2000/svg"><path d="M8.871 1.334h-.293a1.333 1.333 0 0 0-1.333 1.333v.12a1.333 1.333 0 0 1-.667 1.154l-.287.166a1.333 1.333 0 0 1-1.333 0l-.1-.053a1.333 1.333 0 0 0-1.82.487l-.147.253a1.333 1.333 0 0 0 .487 1.82l.1.067a1.333 1.333 0 0 1 .667 1.146v.34a1.333 1.333 0 0 1-.667 1.16l-.1.06a1.333 1.333 0 0 0-.487 1.82l.147.254a1.333 1.333 0 0 0 1.82.486l.1-.053a1.334 1.334 0 0 1 1.333 0l.287.167a1.333 1.333 0 0 1 .667 1.153v.12a1.333 1.333 0 0 0 1.333 1.333h.293a1.334 1.334 0 0 0 1.334-1.333v-.12a1.334 1.334 0 0 1 .666-1.153l.287-.167a1.334 1.334 0 0 1 1.333 0l.1.053a1.333 1.333 0 0 0 1.82-.486l.147-.26a1.333 1.333 0 0 0-.487-1.82l-.1-.054a1.334 1.334 0 0 1-.666-1.16v-.333a1.333 1.333 0 0 1 .666-1.16l.1-.06a1.334 1.334 0 0 0 .487-1.82l-.147-.253a1.333 1.333 0 0 0-1.82-.487l-.1.053a1.333 1.333 0 0 1-1.333 0l-.287-.166a1.333 1.333 0 0 1-.666-1.154v-.12A1.333 1.333 0 0 0 8.87 1.334Z" stroke="currentColor" stroke-linecap="round" stroke-linejoin="round"/><path d="M8.725 10a2 2 0 1 0 0-4 2 2 0 0 0 0 4Z" stroke="currentColor" stroke-linecap="round" stroke-linejoin="round"/></svg>