<svg xmlns="http://www.w3.org/2000/svg" width="16" height="17" fill="none"><path d="M13.333 5.834H2.667A.667.667 0 0 0 2 6.501v1.333c0 .368.298.667.667.667h10.666A.667.667 0 0 0 14 7.834V6.501a.667.667 0 0 0-.667-.667ZM8 5.834v8.667" stroke="currentColor" stroke-linecap="round" stroke-linejoin="round"/><path d="M12.667 8.5v4.667a1.333 1.333 0 0 1-1.333 1.333H4.667a1.334 1.334 0 0 1-1.333-1.333V8.5M5 5.834A1.667 1.667 0 1 1 5 2.5c.643-.01 1.274.301 1.809.896.535.594.95 1.444 1.191 2.438.241-.994.657-1.844 1.192-2.438C9.727 2.8 10.357 2.489 11 2.5a1.667 1.667 0 0 1 0 3.334" stroke="currentColor" stroke-linecap="round" stroke-linejoin="round"/></svg>